<svg width="205" height="39" viewBox="0 0 205 39" fill="none" xmlns="http://www.w3.org/2000/svg">
<path d="M10.936 31.68H28.696V24.096H10.936V31.68ZM19.72 17.664L23.848 26.928L23.128 29.664L26.68 36H38.68L19.72 -2.86102e-06L0.76 36H12.76L16.408 29.328L15.592 26.928L19.72 17.664ZM51.6531 21.6L59.8131 36H72.0531L62.4531 21.6H51.6531ZM41.8131 2.4V36H52.3731V2.4H41.8131ZM48.6291 11.28H55.0131C55.9091 11.28 56.6451 11.408 57.2211 11.664C57.7971 11.888 58.2291 12.24 58.5171 12.72C58.8371 13.168 58.9971 13.728 58.9971 14.4C58.9971 15.04 58.8371 15.6 58.5171 16.08C58.2291 16.56 57.7971 16.928 57.2211 17.184C56.6451 17.408 55.9091 17.52 55.0131 17.52H48.6291V25.44H55.9731C59.2691 25.44 61.9411 24.944 63.9891 23.952C66.0691 22.96 67.5891 21.6 68.5491 19.872C69.5411 18.112 70.0371 16.128 70.0371 13.92C70.0371 11.68 69.5411 9.696 68.5491 7.968C67.5891 6.24 66.0691 4.88 63.9891 3.888C61.9411 2.896 59.2691 2.4 55.9731 2.4H48.6291V11.28ZM90.7825 18.816L84.3025 2.4H71.8225L90.7825 38.4L109.743 2.4H97.2625L90.7825 18.816ZM122.716 21.6L130.876 36H143.116L133.516 21.6H122.716ZM112.876 2.4V36H123.436V2.4H112.876ZM119.692 11.28H126.076C126.972 11.28 127.708 11.408 128.284 11.664C128.86 11.888 129.292 12.24 129.58 12.72C129.9 13.168 130.06 13.728 130.06 14.4C130.06 15.04 129.9 15.6 129.58 16.08C129.292 16.56 128.86 16.928 128.284 17.184C127.708 17.408 126.972 17.52 126.076 17.52H119.692V25.44H127.036C130.332 25.44 133.004 24.944 135.052 23.952C137.132 22.96 138.652 21.6 139.612 19.872C140.604 18.112 141.1 16.128 141.1 13.92C141.1 11.68 140.604 9.696 139.612 7.968C138.652 6.24 137.132 4.88 135.052 3.888C133.004 2.896 130.332 2.4 127.036 2.4H119.692V11.28ZM153.781 36H170.725V27.6H153.781V36ZM153.781 10.8H170.725V2.4H153.781V10.8ZM153.781 22.8H169.765V14.64H153.781V22.8ZM146.485 2.4V36H156.565V2.4H146.485ZM182.138 23.232L175.034 28.416C175.802 30.112 176.938 31.648 178.442 33.024C179.946 34.4 181.722 35.472 183.77 36.24C185.85 37.04 188.09 37.44 190.49 37.44C192.218 37.44 193.898 37.2 195.53 36.72C197.162 36.24 198.618 35.536 199.898 34.608C201.21 33.68 202.25 32.512 203.018 31.104C203.786 29.664 204.17 28.016 204.17 26.16C204.17 24.848 203.978 23.664 203.594 22.608C203.21 21.52 202.634 20.544 201.866 19.68C201.13 18.816 200.234 18.064 199.178 17.424C198.122 16.752 196.922 16.176 195.578 15.696C194.266 15.216 193.066 14.8 191.978 14.448C190.89 14.064 190.01 13.664 189.338 13.248C188.698 12.8 188.378 12.24 188.378 11.568C188.378 11.024 188.602 10.624 189.05 10.368C189.53 10.112 190.138 9.984 190.874 9.984C191.482 9.984 192.106 10.096 192.746 10.32C193.386 10.544 194.01 10.896 194.618 11.376C195.258 11.824 195.834 12.448 196.346 13.248L204.17 8.928C203.562 7.776 202.666 6.624 201.482 5.472C200.33 4.32 198.842 3.36 197.018 2.592C195.226 1.824 193.066 1.44 190.538 1.44C188.202 1.44 186.058 1.824 184.106 2.592C182.154 3.36 180.586 4.496 179.402 6C178.218 7.504 177.626 9.36 177.626 11.568C177.626 13.264 177.93 14.736 178.538 15.984C179.178 17.232 179.962 18.288 180.89 19.152C181.85 20.016 182.842 20.72 183.866 21.264C184.922 21.808 185.85 22.24 186.65 22.56C188.474 23.264 189.834 23.824 190.73 24.24C191.626 24.656 192.218 25.024 192.506 25.344C192.826 25.664 192.986 26.048 192.986 26.496C192.986 27.232 192.698 27.776 192.122 28.128C191.546 28.448 190.842 28.608 190.01 28.608C189.018 28.608 188.026 28.4 187.034 27.984C186.074 27.568 185.178 26.96 184.346 26.16C183.514 25.328 182.778 24.352 182.138 23.232Z" fill="white"/>
</svg>
